# Rhino

mtllib input_B1_exercise.mtl
usemtl diffuse_0_0_0_255
v 0 0 43.738919459629614
v 228.365234375 0 43.738919459629614
v 0 0 -88.522064915370379
v 228.365234375 0 -88.522064915370379
v 9.791820312499965 0 16.304009303379615
v 21.250507812499961 25.15710546875 17.922673365879604
v 13.485148437499959 28.425488281250001 43.738919459629614
v 214.85617187499997 28.474117187499999 43.738919459629614
v 207.10778124999999 25.21013671875 17.989337428379571
v 218.59263281249997 0 16.370540553379584
v 13.513125000000002 28.482390625000001 -88.522064915370379
v 21.256765625000014 25.217421874999999 -62.785580540370347
v 9.7702109374999395 0 -61.16196335287043
v 218.57591406249998 0 -61.095822727870427
v 207.11245312499997 25.16765625 -62.715748509120431
v 214.87585156249997 28.434093749999999 -88.522064915370379
v 193.95627343749999 49.607795898437502 -62.958381321620436
v 201.08548437499996 53.831734375000003 -88.522064915370379
v 178.89226562499999 72.889428710937494 -62.88983054037044
v 185.52872656249997 78.095801757812495 -88.522064915370379
v 160.69850390624998 94.577632812499999 -62.956760227870404
v 166.53506640625 101.15648046875 -88.522064915370379
v 138.105224609375 111.13242187500001 -61.693318821620437
v 141.22705859374997 120.89903515625001 -88.522064915370379
v 114.2390944099426 117.01890625 -60.829623509120438
v 114.93936639404293 128.07971875000001 -88.522064915370379
v 90.34133984374995 111.17308593750001 -61.689807102870418
v 87.481441406249985 121.07958203125 -88.522064915370379
v 67.83557031250001 94.745431640625 -62.954830540370381
v 61.99376562499998 101.3228359375 -88.522064915370379
v 49.57604296874996 73.049779296875002 -62.92043210287045
v 42.97390624999997 78.28369140625 -88.522064915370379
v 34.448976562499979 49.711697265624998 -63.024299290370436
v 27.346257812499971 53.948324218750003 -88.522064915370379
v 54.069363281249991 69.138325683593749 -36.663994602870389
v 39.589304687499975 46.759664062500001 -36.435463352870443
v 26.961453124999991 23.341269531249999 -36.141428196620382
v 16.065203124999982 0 -35.204509251307854
v 39.580374999999947 46.697398437499999 -8.5055658919328891
v 26.97135156249999 23.302734375 -8.8192670638079278
v 16.091335937499991 0 -9.7620326888079205
v 34.40201562499999 49.587965820312498 18.166978053379609
v 54.013160156249967 69.032994628906252 -8.2269848372453964
v 49.458074218749971 72.867958007812504 18.105329615879583
v 42.815999999999974 78.067492187500008 43.738919459629614
v 27.268335937500012 53.8117158203125 43.738919459629614
v 67.636207031249967 94.551375000000007 18.184146022129624
v 61.80207812499998 101.1279140625 43.738919459629614
v 90.251041015624992 111.13311718750001 16.92562649087958
v 87.124488281249967 120.89183593750001 43.738919459629614
v 114.12355681991576 117.02235546875001 16.057173365879606
v 113.42180950927732 128.07974218750002 43.738919459629614
v 138.03530273437497 111.17113671875001 16.918146022129605
v 140.893724609375 121.07435546875 43.738919459629614
v 160.55583203124996 94.724443359375002 18.184493678379596
v 166.395921875 101.29796484375001 43.738919459629614
v 178.80631640624998 73.025293945312498 18.139704615879594
v 185.41801562499998 78.247194335937508 43.738919459629614
v 193.92090624999997 49.691437499999999 18.225048365879587
v 201.03168749999998 53.926036132812499 43.738919459629614
v 174.30226562499996 69.125881835937506 -8.1328969466203773
v 188.77946874999998 46.750039062500001 -8.3607006575578851
v 201.40492187499999 23.333500000000001 -8.658058079432891
v 188.78349999999998 46.703330078124999 -36.289659641932872
v 201.39400781249998 23.308355468750001 -35.981917454432846
v 212.27732031249997 0 -35.046771946620424
v 212.29650781249998 0 -9.598850071620376
v 174.34462499999998 69.042159667968747 -36.568985813807899
v 157.46058593749999 88.928267578125002 -36.363229954432882
v 157.34452734374997 89.034732421875006 -8.4645102278704201
v 137.220326171875 103.96221484375 -9.698757298182926
v 137.25781835937499 103.94949609375 -35.129840305995344
v 114.22629170989987 109.981234375 -34.588585423182849
v 114.17776306390761 109.98616015625001 -10.167794407557921
v 91.107408203124976 103.95647265625 -9.6120912825578841
v 91.16597070312497 103.96903515625 -35.056769993495436
v 71.044812499999978 89.049832031250006 -36.286488743495397
v 70.883707031249969 88.915720703125004 -8.3832699934954178
vn 0.85883176326751709 -0.4091169536113739 0.30827146768569946
vn -0.85877925157546997 -0.40912380814552307 0.30840864777565002
vn 0.85877430438995361 -0.40912327170372009 -0.30842322111129761
vn -0.85882407426834106 -0.40911927819252014 -0.30828988552093506
vn 0.87163585424423218 -0.41412094235420227 0.26221135258674622
vn 0.86022919416427612 -0.43709203600883484 0.26259526610374451
vn 0.84773331880569458 -0.43147912621498108 0.30850282311439514
vn -0.84765124320983887 -0.43154048919677734 0.30864247679710388
vn -0.86011803150177002 -0.43711367249488831 0.26292330026626587
vn -0.87154525518417358 -0.4140876829624176 0.26256474852561951
vn 0.84764808416366577 -0.43154358863830566 -0.30864688754081726
vn 0.8601078987121582 -0.43710792064666748 -0.26296591758728027
vn 0.87153613567352295 -0.41408121585845947 -0.26260530948638916
vn -0.87162548303604126 -0.41411080956459045 -0.26226171851158142
vn -0.8602215051651001 -0.43708157539367676 -0.26263779401779175
vn -0.84773081541061401 -0.43148103356361389 -0.30850702524185181
vn -0.82981789112091064 -0.4918186366558075 -0.26366019248962402
vn -0.81836158037185669 -0.48434558510780334 -0.30934390425682068
vn -0.77561807632446289 -0.57166159152984619 -0.26761841773986816
vn -0.7656484842300415 -0.56140106916427612 -0.31402426958084106
vn -0.66368621587753296 -0.69448363780975342 -0.2778724730014801
vn -0.65582740306854248 -0.68078804016113281 -0.32621780037879944
vn -0.4199158251285553 -0.85621553659439087 -0.30094128847122192
vn -0.41525202989578247 -0.83868616819381714 -0.35237935185432434
vn -0.0026984477881342173 -0.9483482837677002 -0.31721958518028259
vn -0.0044522332027554512 -0.92919331789016724 -0.36956724524497986
vn 0.41664192080497742 -0.85820651054382324 -0.29981851577758789
vn 0.41027387976646423 -0.84200799465179443 -0.35028257966041565
vn 0.66264468431472778 -0.69552576541900635 -0.27775156497955322
vn 0.65465080738067627 -0.68204760551452637 -0.32594999670982361
vn 0.77515453100204468 -0.57221579551696777 -0.26777693629264832
vn 0.7651401162147522 -0.56205517053604126 -0.31409332156181335
vn 0.82961732149124146 -0.49201986193656921 -0.26391586661338806
vn 0.81815695762634277 -0.4846307635307312 -0.30943858623504639
vn 0.79783117771148682 -0.59253174066543579 -0.11122731864452362
vn 0.85504841804504395 -0.50676017999649048 -0.10993791371583939
vn 0.88732379674911499 -0.44797107577323914 -0.10944578051567078
vn 0.89950215816497803 -0.42304995656013489 -0.10919979214668274
vn 0.85521280765533447 -0.50670373439788818 0.10891444981098175
vn 0.88745111227035522 -0.44801193475723267 0.10823985934257507
vn 0.89962196350097656 -0.42311576008796692 0.10795096307992935
vn 0.82985794544219971 -0.49177300930023193 0.26361915469169617
vn 0.79807901382446289 -0.59227055311203003 0.11083974689245224
vn 0.77569562196731567 -0.57156920433044434 0.2675909698009491
vn 0.76573091745376587 -0.56128442287445068 0.31403174996376038
vn 0.81838566064834595 -0.48429414629936218 0.30936071276664734
vn 0.66379523277282715 -0.6943671703338623 0.27790313959121704
vn 0.65597116947174072 -0.68064534664154053 0.32622647285461426
vn 0.41999855637550354 -0.85613435506820679 0.30105683207511902
vn 0.41540992259979248 -0.83859902620315552 0.35240074992179871
vn 0.0025943794753402472 -0.94832253456115723 0.31729733943939209
vn 0.0044861175119876862 -0.92918485403060913 0.36958816647529602
vn -0.41683501005172729 -0.85811108350753784 0.29982319474220276
vn -0.41039520502090454 -0.84194290637969971 0.35029688477516174
vn -0.66278386116027832 -0.69539093971252441 0.27775710821151733
vn -0.65479177236557007 -0.68190878629684448 0.32595735788345337
vn -0.77523636817932129 -0.57211220264434814 0.26776149868965149
vn -0.76521843671798706 -0.56193286180496216 0.31412139534950256
vn -0.8296506404876709 -0.49198222160339355 0.26388123631477356
vn -0.81817829608917236 -0.4845786988735199 0.30946364998817444
vn -0.79786986112594604 -0.59247839450836182 0.11123411357402802
vn -0.85506367683410645 -0.50675749778747559 0.10983132570981979
vn -0.8873363733291626 -0.44797837734222412 0.10931375622749329
vn -0.85518062114715576 -0.50673460960388184 -0.10902336239814758
vn -0.88744240999221802 -0.44799727201461792 -0.10837186127901077
vn -0.89961206912994385 -0.42309939861297607 -0.10809724032878876
vn -0.89951604604721069 -0.42305606603622437 0.10906153917312622
vn -0.79805386066436768 -0.59230542182922363 -0.1108345165848732
vn -0.68115615844726563 -0.72302466630935669 -0.1151593029499054
vn -0.6807715892791748 -0.72337430715560913 0.11523749679327011
vn -0.43072324991226196 -0.89375078678131104 0.12524762749671936
vn -0.431353360414505 -0.89343982934951782 -0.12529776990413666
vn -0.00061719422228634357 -0.99109631776809692 -0.13314524292945862
vn 0.00020278799638617784 -0.99106675386428833 0.13336667418479919
vn 0.43121743202209473 -0.89346784353256226 0.12556581199169159
vn 0.43045976758003235 -0.89389920234680176 -0.12509424984455109
vn 0.6806943416595459 -0.72346943616867065 -0.11509649455547333
vn 0.68116623163223267 -0.72298866510391235 0.11532538384199142
f 1//1 5//5 6//6 7//7
f 2//2 8//8 9//9 10//10
f 3//3 11//11 12//12 13//13
f 4//4 14//14 15//15 16//16
f 16//16 15//15 17//17 18//18
f 18//18 17//17 19//19 20//20
f 20//20 19//19 21//21 22//22
f 22//22 21//21 23//23 24//24
f 24//24 23//23 25//25 26//26
f 26//26 25//25 27//27 28//28
f 28//28 27//27 29//29 30//30
f 30//30 29//29 31//31 32//32
f 32//32 31//31 33//33 34//34
f 34//34 33//33 12//12 11//11
f 33//33 31//31 35//35 36//36
f 33//33 36//36 37//37 12//12
f 37//37 38//38 13//13 12//12
f 37//37 36//36 39//39 40//40
f 37//37 40//40 41//41 38//38
f 41//41 40//40 6//6 5//5
f 40//40 39//39 42//42 6//6
f 42//42 39//39 43//43 44//44
f 42//42 44//44 45//45 46//46
f 42//42 46//46 7//7 6//6
f 45//45 44//44 47//47 48//48
f 48//48 47//47 49//49 50//50
f 50//50 49//49 51//51 52//52
f 52//52 51//51 53//53 54//54
f 54//54 53//53 55//55 56//56
f 56//56 55//55 57//57 58//58
f 58//58 57//57 59//59 60//60
f 60//60 59//59 9//9 8//8
f 59//59 57//57 61//61 62//62
f 59//59 62//62 63//63 9//9
f 63//63 62//62 64//64 65//65
f 63//63 65//65 66//66 67//67
f 63//63 67//67 10//10 9//9
f 66//66 65//65 15//15 14//14
f 65//65 64//64 17//17 15//15
f 64//64 68//68 19//19 17//17
f 64//64 62//62 61//61 68//68
f 68//68 69//69 21//21 19//19
f 68//68 61//61 70//70 69//69
f 70//70 71//71 72//72 69//69
f 70//70 61//61 57//57 55//55
f 70//70 55//55 53//53 71//71
f 72//72 73//73 25//25 23//23
f 72//72 23//23 21//21 69//69
f 72//72 71//71 74//74 73//73
f 74//74 75//75 76//76 73//73
f 74//74 71//71 53//53 51//51
f 74//74 51//51 49//49 75//75
f 76//76 77//77 29//29 27//27
f 76//76 27//27 25//25 73//73
f 76//76 75//75 78//78 77//77
f 78//78 43//43 35//35 77//77
f 78//78 75//75 49//49 47//47
f 78//78 47//47 44//44 43//43
f 77//77 35//35 31//31 29//29
f 43//43 39//39 36//36 35//35
